<?xml version="1.0" standalone="no"?>
<!DOCTYPE svg PUBLIC "-//W3C//DTD SVG 20010904//EN"
 "http://www.w3.org/TR/2001/REC-SVG-20010904/DTD/svg10.dtd">
<svg version="1.0" xmlns="http://www.w3.org/2000/svg"
 width="500.000000pt" height="500.000000pt" viewBox="0 0 500.000000 500.000000"
 preserveAspectRatio="xMidYMid meet">
<metadata>
Created by potrace 1.11, written by Peter Selinger 2001-2013
</metadata>
<g transform="translate(0.000000,500.000000) scale(0.100000,-0.100000)"
fill="#000000" stroke="none">
<path d="M2170 4664 c-249 -20 -487 -86 -670 -186 -383 -208 -669 -578 -799
-1032 -54 -189 -66 -280 -66 -511 0 -237 16 -337 81 -507 169 -444 609 -770
1169 -868 185 -32 410 -45 557 -31 289 25 620 120 916 261 156 75 261 144 387
254 89 78 185 176 172 176 -3 0 -29 -20 -58 -45 -211 -180 -574 -347 -975
-449 -205 -52 -509 -90 -644 -80 -204 15 -322 45 -590 151 -192 76 -282 131
-417 254 -209 190 -328 418 -374 712 -28 185 6 481 82 713 160 482 585 887
1064 1014 191 50 370 61 590 34 167 -19 289 -52 408 -107 l95 -44 52 30 52 30
-84 39 c-189 90 -351 141 -548 172 -98 16 -320 27 -400 20z"/>
<path d="M3255 4330 c-23 -45 -63 -78 -140 -115 -164 -80 -332 -96 -725 -71
-329 21 -489 8 -651 -50 -151 -55 -268 -143 -314 -239 -92 -189 30 -489 237
-584 80 -38 138 -49 138 -28 0 8 -8 21 -17 28 -9 8 -42 46 -74 86 -89 111
-141 233 -101 233 5 0 54 -29 109 -64 249 -160 431 -229 632 -238 89 -4 111
16 29 26 -70 9 -210 57 -298 101 -103 52 -171 97 -240 161 -156 145 -155 268
5 344 112 53 259 76 575 90 463 20 625 59 766 183 43 38 104 128 104 155 0 22
-19 13 -35 -18z"/>
<path d="M3349 4246 l-23 -44 60 -65 c71 -78 141 -192 193 -313 69 -162 91
-275 98 -519 7 -233 21 -228 30 10 11 301 -55 597 -179 802 -34 56 -133 173
-147 173 -5 0 -19 -20 -32 -44z"/>
<path d="M1207 3199 c-69 -40 -78 -255 -20 -504 66 -285 296 -547 575 -655
139 -53 221 -62 507 -58 244 4 259 6 322 29 97 37 153 73 229 148 116 114 207
276 254 453 31 117 38 170 24 166 -6 -2 -21 -41 -34 -87 -78 -270 -276 -511
-479 -582 -51 -18 -83 -21 -220 -21 -421 0 -708 128 -864 387 -70 115 -121
308 -121 455 l0 78 38 6 c37 5 363 27 697 46 99 5 315 15 480 20 325 11 385
16 385 31 0 5 -20 10 -45 10 -25 1 -48 2 -52 3 -5 1 -64 5 -133 9 -69 4 -174
12 -235 17 -510 45 -1267 73 -1308 49z"/>
<path d="M3176 3097 c-9 -105 -4 -117 43 -117 97 0 215 -56 259 -122 23 -35
27 -52 27 -107 0 -55 -6 -78 -34 -136 -45 -92 -150 -197 -261 -261 -129 -75
-62 -70 90 7 138 70 245 173 298 289 37 79 41 185 12 263 -26 69 -100 148
-181 195 -60 33 -176 72 -219 72 -27 0 -27 -1 -34 -83z"/>
<path d="M3780 3024 c0 -11 -3 -29 -6 -40 -6 -23 -22 -15 824 -388 107 -46
203 -92 213 -102 25 -22 24 -65 -1 -97 -26 -33 -91 -71 -310 -184 -167 -86
-615 -318 -1280 -663 -168 -87 -388 -202 -490 -255 -102 -53 -225 -110 -275
-128 -83 -29 -100 -31 -220 -32 l-130 0 -220 106 c-208 101 -1116 537 -1347
648 -120 57 -136 74 -115 124 20 46 81 92 184 136 48 21 88 42 90 47 1 5 -5
19 -15 32 l-18 23 -104 -45 c-137 -58 -189 -88 -249 -142 -63 -57 -81 -105
-57 -152 13 -25 49 -47 193 -121 98 -50 272 -144 388 -209 301 -169 591 -333
810 -458 238 -135 359 -202 409 -226 129 -65 398 -40 606 55 42 18 197 109
345 202 149 92 455 283 680 423 1230 765 1190 738 1247 816 50 69 32 129 -54
172 -77 39 -1051 466 -1075 471 -18 4 -23 1 -23 -13z"/>
<path d="M4119 2604 c-31 -9 -59 -28 -84 -55 -31 -35 -36 -47 -32 -74 8 -49
33 -81 83 -105 98 -48 244 -32 311 35 117 117 -82 260 -278 199z m212 -90 c48
-28 57 -48 34 -74 -47 -52 -172 -67 -252 -31 -78 36 -73 84 12 116 54 20 163
14 206 -11z"/>
<path d="M4885 2265 c-29 -18 -39 -31 -37 -45 7 -42 -19 -89 -66 -123 -26 -19
-209 -125 -407 -237 -198 -112 -409 -231 -470 -265 -60 -34 -306 -172 -545
-307 -239 -135 -514 -290 -610 -345 -198 -112 -251 -137 -344 -158 -70 -16
-202 -21 -251 -10 -27 7 -140 64 -300 150 -33 18 -177 94 -320 170 -143 75
-296 156 -340 180 -44 23 -219 115 -390 205 -363 190 -374 197 -381 231 -8 36
-108 96 -130 78 -26 -21 -44 -66 -44 -108 0 -51 29 -79 147 -140 133 -70 323
-184 718 -431 33 -21 137 -85 230 -143 94 -57 290 -179 436 -270 146 -90 284
-174 307 -186 131 -67 401 -37 607 66 60 30 297 186 600 394 44 31 166 113
270 184 323 219 646 438 745 506 52 36 187 128 300 204 113 76 224 154 248
173 96 78 137 163 107 222 -19 36 -28 37 -80 5z"/>
<path d="M4280 803 c-30 -12 -97 -74 -144 -132 -38 -47 -54 -59 -75 -59 -36 1
-84 -25 -161 -87 -65 -53 -128 -95 -142 -95 -22 0 -2 44 43 95 43 50 48 60 34
67 -12 7 -29 0 -68 -29 -76 -57 -85 -62 -65 -33 37 52 40 60 23 66 -9 4 -25
-2 -38 -13 -54 -49 -207 -141 -207 -125 0 5 25 36 55 69 30 34 55 64 55 67 0
19 -39 0 -85 -41 -99 -89 -153 -105 -80 -24 67 73 33 86 -37 14 -101 -105 -99
-193 2 -113 l38 30 -2 -32 c-2 -61 48 -43 194 69 32 24 31 23 -9 -19 -29 -31
-42 -52 -38 -63 8 -19 30 -10 92 40 60 47 72 53 52 24 -31 -43 -17 -99 24 -99
9 0 32 11 52 24 l36 24 14 -21 c12 -19 17 -20 44 -8 17 7 42 24 55 38 l23 25
5 -34 c7 -44 36 -48 95 -14 l44 26 3 -22 c5 -36 38 -33 85 7 23 19 43 35 45
35 3 0 3 -13 0 -29 -7 -53 23 -49 101 12 l38 30 -3 -29 c-4 -38 22 -43 64 -12
l33 23 -39 -48 c-24 -29 -46 -47 -60 -47 -57 0 -176 -102 -176 -151 0 -27 26
-41 61 -34 41 9 98 62 172 160 33 44 92 117 130 163 49 59 66 87 59 94 -8 8
-27 -4 -66 -38 -104 -93 -155 -106 -76 -20 22 24 40 46 40 50 0 18 -38 1 -96
-44 -73 -56 -124 -85 -124 -71 0 5 18 31 40 57 22 27 40 53 40 59 0 5 -11 15
-24 21 -33 16 -78 -1 -179 -68 -97 -65 -152 -98 -161 -98 -22 0 44 83 160 201
136 139 167 186 104 162z m-270 -274 c-62 -55 -100 -82 -100 -71 0 16 110 112
128 112 11 -1 2 -14 -28 -41z m270 0 c-57 -52 -100 -83 -100 -72 0 11 79 87
105 101 41 23 39 10 -5 -29z m90 -197 c0 -13 -129 -136 -136 -130 -9 9 28 58
76 101 38 36 60 46 60 29z"/>
<path d="M3260 779 c-73 -13 -148 -49 -199 -94 -35 -32 -41 -44 -39 -69 5 -47
51 -66 161 -66 78 0 88 -2 85 -17 -5 -26 -87 -63 -196 -89 -113 -28 -134 -30
-108 -11 15 11 9 12 -38 3 -33 -6 -56 -15 -56 -23 0 -18 38 -40 82 -48 43 -8
176 16 241 44 53 23 113 73 120 101 12 47 -52 79 -163 80 -74 0 -89 11 -58 40
51 48 156 86 265 96 62 6 75 5 71 -7 -2 -8 -32 -23 -66 -35 -34 -12 -65 -24
-69 -27 -14 -14 111 -6 142 9 42 19 50 40 30 71 -28 43 -108 59 -205 42z"/>
<path d="M4665 575 c-33 -30 -63 -55 -67 -55 -5 0 -8 -4 -8 -10 0 -19 25 -10
69 25 24 19 48 35 53 35 21 0 -21 -103 -48 -118 -19 -11 -54 -4 -54 9 0 5 -4
9 -10 9 -16 0 -12 -47 6 -64 35 -36 97 -6 249 121 57 48 36 50 -30 4 -32 -23
-61 -41 -65 -41 -4 0 -1 25 7 56 8 31 12 62 9 70 -11 28 -51 13 -111 -41z"/>
</g>
</svg>
